<svg width="68" height="76" viewBox="0 0 68 76" fill="none" xmlns="http://www.w3.org/2000/svg">
<path d="M14.8895 26.9586C15.0979 18.577 17.2159 11.5915 20.797 7.47443C24.3781 3.35738 29.1426 2.43037 34.0863 4.8888C39.0301 7.34722 43.7668 12.999 47.2983 20.653C50.8297 28.307 52.88 37.3653 53.017 45.9187C53.154 54.4721 51.367 61.8525 48.0326 66.5044C44.6983 71.1562 40.077 72.7161 35.1429 70.8554C30.2087 68.9946 25.3471 63.8585 21.5827 56.5295C17.8182 49.2005 15.445 40.2512 14.9633 31.5678" stroke="#027373" stroke-width="1.74318"/>
<path d="M18.1499 55.0276C13.7321 54.2775 11.4054 53.5009 7.72643 51.0003C3.49973 48.2195 2.10898 44.2799 3.84729 40.012C5.58561 35.744 10.3172 31.4811 17.0448 28.1215C23.7724 24.762 31.9706 22.5684 39.9113 22.003C42.3608 21.8547 43.6138 21.8645 45.6922 22.003" stroke="#04BFBF" stroke-width="1.74318"/>
<path d="M50.2244 22.2558C55.6849 22.9326 58.1961 23.9296 61.8895 26.5893C65.6255 29.5913 66.4367 33.6648 64.152 37.9515C61.6925 41.8377 59.7398 43.8051 55.454 47.009" stroke="#142740" stroke-width="1.74318"/>
<path d="M50.9164 49.1387C42.848 53.5207 33.1531 55.8112 23.8752 55.5276" stroke="#3767A6" stroke-width="1.74318"/>
<circle cx="41.9876" cy="10.8813" r="4.31413" fill="#142740"/>
</svg>
