<svg width="25" height="25" viewBox="0 0 25 25" fill="none" xmlns="http://www.w3.org/2000/svg">
<path d="M12.7907 10.2196V15.0507H19.6505C19.012 18.1208 16.3394 19.8847 12.7907 19.8847C8.65736 19.829 5.33644 16.5364 5.33644 12.4937C5.33644 8.45114 8.65736 5.15847 12.7907 5.10283C14.5088 5.10082 16.1741 5.68391 17.5004 6.75195L21.2223 3.11214C16.953 -0.558376 10.7179 -1.03048 5.92178 1.95362C1.12562 4.93772 -1.07902 10.6608 0.5117 15.9979C2.10242 21.335 7.10619 25.0034 12.7907 25C19.1852 25 25 20.4516 25 12.493C24.9901 11.7268 24.8941 10.9639 24.7137 10.2182L12.7907 10.2196Z" fill="#E5E5E5"/>
</svg>
