<svg width="25" height="25" viewBox="0 0 25 25" fill="none" xmlns="http://www.w3.org/2000/svg">
<path d="M12.4931 25C9.07829 25 8.67574 24.982 7.34314 24.9238C6.30396 24.8896 5.27823 24.6787 4.31011 24.3C2.63508 23.6491 1.31058 22.326 0.659356 20.6531C0.294706 19.6829 0.0980259 18.6578 0.0777346 17.6217C0 16.2938 0 15.8586 0 12.475C0 9.0555 0.0180455 8.6563 0.0777346 7.33256C0.0984698 6.29785 0.295143 5.27418 0.659356 4.30528C1.30987 2.6302 2.63652 1.30596 4.31427 0.657019C5.28407 0.291365 6.30947 0.0944559 7.34592 0.0748503C8.67157 0 9.10744 0 12.4931 0C15.9356 0 16.3312 0.0180195 17.643 0.0748503C18.6821 0.0946255 19.7102 0.291514 20.683 0.657019C22.3602 1.3067 23.6866 2.63068 24.3379 4.30528C24.7087 5.2883 24.9064 6.32797 24.9223 7.3783C25 8.7062 25 9.14005 25 12.5222C25 15.9043 24.9806 16.3479 24.9223 17.6605C24.9016 18.6976 24.7045 19.7236 24.3393 20.6947C23.6864 22.3687 22.3599 23.6923 20.683 24.343C19.7116 24.7064 18.6856 24.9028 17.6485 24.9238C16.3229 25 15.8884 25 12.4931 25ZM12.4459 2.19422C9.05053 2.19422 8.69795 2.21086 7.37229 2.27046C6.58104 2.28093 5.79744 2.42673 5.05552 2.70154C3.95996 3.12016 3.09304 3.9823 2.66935 5.07457C2.39202 5.82349 2.24599 6.61452 2.23765 7.41295C2.16408 8.7561 2.16408 9.10817 2.16408 12.475C2.16408 15.8017 2.17657 16.2051 2.23765 17.5399C2.25007 18.3303 2.39602 19.1129 2.66935 19.8547C3.09366 20.9463 3.96043 21.8078 5.05552 22.2264C5.79694 22.503 6.58086 22.6489 7.37229 22.6575C8.71599 22.7351 9.06996 22.7351 12.4459 22.7351C15.8509 22.7351 16.2035 22.7185 17.518 22.6575C18.3098 22.6478 19.094 22.502 19.8362 22.2264C20.9251 21.8041 21.7864 20.9446 22.2099 19.8575C22.4867 19.108 22.6327 18.3166 22.6416 17.5177H22.6569C22.7165 16.1926 22.7165 15.8392 22.7165 12.4529C22.7165 9.06659 22.7013 8.71036 22.6416 7.38661C22.6291 6.59715 22.4832 5.81547 22.2099 5.07457C21.7874 3.98588 20.926 3.12471 19.8362 2.70154C19.0942 2.42535 18.3099 2.2795 17.518 2.27046C16.1757 2.19422 15.8245 2.19422 12.4459 2.19422ZM12.4931 18.8775C9.89726 18.8792 7.55611 17.3192 6.56144 14.9249C5.56678 12.5307 6.11453 9.77397 7.94924 7.94031C9.78395 6.10666 12.5442 5.55732 14.9428 6.54847C17.3413 7.53963 18.9056 9.87606 18.9062 12.4681C18.9023 16.0042 16.0342 18.8706 12.4931 18.8775ZM12.4931 8.307C10.1932 8.307 8.32871 10.1688 8.32871 12.4653C8.32871 14.7619 10.1932 16.6237 12.4931 16.6237C14.793 16.6237 16.6574 14.7619 16.6574 12.4653C16.6521 10.171 14.7908 8.31233 12.4931 8.307ZM19.156 7.3187C18.3307 7.31564 17.6637 6.64586 17.6652 5.8217C17.6667 4.99754 18.3362 4.33024 19.1616 4.33024C19.9869 4.33024 20.6564 4.99753 20.658 5.82169C20.6583 6.21931 20.5001 6.60072 20.2183 6.88162C19.9365 7.16252 19.5542 7.3198 19.156 7.3187Z" fill="#E5E5E5"/>
</svg>
