<svg width="237" height="239" viewBox="0 0 237 239" fill="none" xmlns="http://www.w3.org/2000/svg">
<g filter="url(#filter0_d_263_430)">
<g filter="url(#filter1_d_263_430)">
<ellipse cx="118.5" cy="115.5" rx="104.5" ry="105.5" fill="#F5F5F5"/>
</g>
<path d="M78.5588 92.2027C78.9944 74.5175 83.421 59.7781 90.9055 51.0911C98.39 42.4041 108.348 40.4481 118.68 45.6354C129.013 50.8227 138.912 62.748 146.293 78.8979C153.674 95.0479 157.959 114.161 158.245 132.209C158.532 150.256 154.797 165.829 147.828 175.644C140.859 185.46 131.201 188.751 120.888 184.825C110.576 180.899 100.415 170.061 92.5476 154.597C84.6799 139.133 79.72 120.25 78.7131 101.928" stroke="#027373" stroke-width="1.74318"/>
<path d="M85.373 151.428C76.14 149.846 71.2772 148.207 63.5881 142.931C54.7543 137.063 51.8476 128.751 55.4807 119.745C59.1138 110.74 69.0028 101.745 83.0635 94.6565C97.1243 87.5679 114.258 82.9393 130.854 81.7463C135.974 81.4335 138.593 81.4541 142.936 81.7463" stroke="#04BFBF" stroke-width="1.74318"/>
<path d="M152.409 82.2797C163.821 83.7077 169.07 85.8114 176.789 91.4234C184.597 97.7575 186.293 106.353 181.518 115.398C176.377 123.598 172.296 127.749 163.339 134.509" stroke="#142740" stroke-width="1.74318"/>
<path d="M153.855 139.003C136.992 148.249 116.73 153.082 97.3392 152.483" stroke="#3767A6" stroke-width="1.74318"/>
<ellipse cx="135.194" cy="58.2796" rx="9.01652" ry="9.10281" fill="#142740"/>
</g>
<defs>
<filter id="filter0_d_263_430" x="10" y="10" width="217" height="219" filterUnits="userSpaceOnUse" color-interpolation-filters="sRGB">
<feFlood flood-opacity="0" result="BackgroundImageFix"/>
<feColorMatrix in="SourceAlpha" type="matrix" values="0 0 0 0 0 0 0 0 0 0 0 0 0 0 0 0 0 0 127 0" result="hardAlpha"/>
<feOffset dy="4"/>
<feGaussianBlur stdDeviation="2"/>
<feComposite in2="hardAlpha" operator="out"/>
<feColorMatrix type="matrix" values="0 0 0 0 0 0 0 0 0 0 0 0 0 0 0 0 0 0 0.25 0"/>
<feBlend mode="normal" in2="BackgroundImageFix" result="effect1_dropShadow_263_430"/>
<feBlend mode="normal" in="SourceGraphic" in2="effect1_dropShadow_263_430" result="shape"/>
</filter>
<filter id="filter1_d_263_430" x="0" y="0" width="237" height="239" filterUnits="userSpaceOnUse" color-interpolation-filters="sRGB">
<feFlood flood-opacity="0" result="BackgroundImageFix"/>
<feColorMatrix in="SourceAlpha" type="matrix" values="0 0 0 0 0 0 0 0 0 0 0 0 0 0 0 0 0 0 127 0" result="hardAlpha"/>
<feOffset dy="4"/>
<feGaussianBlur stdDeviation="7"/>
<feComposite in2="hardAlpha" operator="out"/>
<feColorMatrix type="matrix" values="0 0 0 0 0 0 0 0 0 0 0 0 0 0 0 0 0 0 0.25 0"/>
<feBlend mode="normal" in2="BackgroundImageFix" result="effect1_dropShadow_263_430"/>
<feBlend mode="normal" in="SourceGraphic" in2="effect1_dropShadow_263_430" result="shape"/>
</filter>
</defs>
</svg>
