<svg width="143" height="159" viewBox="0 0 143 159" fill="none" xmlns="http://www.w3.org/2000/svg">
<path d="M31.5588 57.2027C31.9944 39.5175 36.421 24.7781 43.9055 16.0911C51.39 7.40413 61.3479 5.44815 71.6803 10.6354C82.0126 15.8227 91.9125 27.748 99.2932 43.8979C106.674 60.0479 110.959 79.1608 111.245 97.2085C111.532 115.256 107.797 130.829 100.828 140.644C93.8592 150.46 84.2008 153.751 73.8884 149.825C63.576 145.899 53.4152 135.061 45.5476 119.597C37.6799 104.133 32.72 85.2502 31.7131 66.9281" stroke="#027373" stroke-width="1.74318"/>
<path d="M38.373 116.428C29.14 114.846 24.2772 113.207 16.5881 107.931C7.75429 102.063 4.84762 93.7508 8.4807 84.7454C12.1138 75.74 22.0028 66.7451 36.0635 59.6565C50.1243 52.5679 67.2583 47.9393 83.8545 46.7463C88.974 46.4335 91.5927 46.4541 95.9365 46.7463" stroke="#04BFBF" stroke-width="1.74318"/>
<path d="M105.409 47.2797C116.821 48.7077 122.07 50.8114 129.789 56.4234C137.597 62.7575 139.293 71.3528 134.518 80.3975C129.377 88.5975 125.296 92.7487 116.339 99.509" stroke="#142740" stroke-width="1.74318"/>
<path d="M106.855 104.003C89.9923 113.249 69.73 118.082 50.3392 117.483" stroke="#3767A6" stroke-width="1.74318"/>
<ellipse cx="88.194" cy="23.2796" rx="9.01652" ry="9.10281" fill="#142740"/>
</svg>
