<svg width="28" height="21" viewBox="0 0 28 21" fill="none" xmlns="http://www.w3.org/2000/svg">
<path d="M14.0173 21H13.9894C13.9026 21 5.2256 20.982 3.03641 20.3451C1.83259 19.9976 0.892466 18.9898 0.568844 17.6998C0.175179 15.3204 -0.0149204 12.9075 0.000913185 10.491C-0.00925762 8.0706 0.185985 5.65422 0.584232 3.2717C0.916747 1.98057 1.85274 0.968094 3.05459 0.599486C5.18363 0 13.6215 0 13.9796 0H14.0089C14.0971 0 22.7965 0.0179846 24.9633 0.654939C26.1646 1.00415 27.1028 2.00992 27.4281 3.29717C27.8343 5.68544 28.0249 8.11005 27.9974 10.5375C28.0072 12.9549 27.8115 15.3684 27.4127 17.7478C27.0849 19.0361 26.1442 20.0417 24.9409 20.39C22.8147 20.994 14.3754 21 14.0173 21ZM11.2196 6.00236L11.2127 14.9946L18.5034 10.4985L11.2196 6.00236Z" fill="#E5E5E5"/>
</svg>
